<svg xmlns="http://www.w3.org/2000/svg" version="1.1" xmlns:xlink="http://www.w3.org/1999/xlink" width="512" height="512" x="0" y="0" viewBox="0 0 32 32" style="enable-background:new 0 0 512 512" xml:space="preserve" class=""><g><path d="M16.001 2c-.505 0-1.01.34-1 1.016v3.129l-1.838-1.84a1 1 0 1 0-1.414 1.414l3.252 3.252v5.298l-4.59-2.648c-.397-1.481-.792-2.962-1.19-4.443a1.001 1.001 0 1 0-1.93.517l.673 2.512-2.71-1.564a.998.998 0 1 0-1 1.73l2.708 1.564-2.51.672a1 1 0 1 0 .518 1.932l4.441-1.19 4.59 2.65-4.59 2.65-4.44-1.19a1 1 0 1 0-.518 1.932l2.511.671-2.71 1.565a.998.998 0 1 0 1 1.73l2.71-1.564-.674 2.512a1.001 1.001 0 1 0 1.932.518c.397-1.482.792-2.963 1.19-4.444L15 17.732v5.3l-3.252 3.251a1 1 0 1 0 1.414 1.414l1.838-1.838v3.127A.997.997 0 0 0 16.009 30c.557-.01 1-.462.992-1.014v-3.123l1.836 1.834a1 1 0 1 0 1.414-1.414L17 23.033v-5.299l4.588 2.649 1.191 4.441a1.001 1.001 0 1 0 1.932-.517l-.672-2.51 2.707 1.562c1.161.693 2.18-1.072 1-1.732l-2.707-1.563 2.508-.671a1 1 0 1 0-.518-1.932l-4.44 1.19L18 16l4.59-2.65 4.44 1.19a1 1 0 1 0 .518-1.932l-2.508-.672 2.707-1.562c1.18-.66.161-2.425-1-1.732l-2.71 1.564.675-2.512a1.001 1.001 0 1 0-1.932-.518l-1.191 4.444L17 14.269v-5.3l3.25-3.25a1 1 0 1 0-1.414-1.414L17 6.14V3.016C17.01 2.339 16.506 2 16 2z" fill="#96dcfc" opacity="1" data-original="#000000"></path></g></svg>