<svg xmlns="http://www.w3.org/2000/svg" version="1.1" xmlns:xlink="http://www.w3.org/1999/xlink" width="512" height="512" x="0" y="0" viewBox="0 0 512.07 512.07" style="enable-background:new 0 0 512 512" xml:space="preserve"><g><path d="M187.642 281.846a351.555 351.555 0 0 0-15.003 8.393c-28.617 16.85-95.451 61.614-98.231 113.243-1.472 27.191 15.086 53.861 49.207 79.278a32.917 32.917 0 0 0 20.727 7.067c7.799-.402 18.286-3.703 19.081-27.639a278.18 278.18 0 0 1 40.466-128.914c2.386-9.061 4.571-16.146 6.016-20.526a73.33 73.33 0 0 1-22.263-30.902zM183.226 263.533a82.208 82.208 0 0 1-.338-7.497 72.574 72.574 0 0 1 6.546-30.08 351.053 351.053 0 0 0-16.832-4.773 7.217 7.217 0 0 1-1.006-.32c-40.037-10.158-111.543-21.879-148.206 11.072-20.26 18.194-27.401 48.786-21.257 90.843a32.641 32.641 0 0 0 9.627 19.566c5.797 5.275 15.543 10.405 33.033-6.025A279.68 279.68 0 0 1 164.5 273.818c8.056-4.727 14.611-8.201 18.726-10.285zM500.3 169.727c-5.797-5.285-15.543-10.395-33.033 6.025a278.238 278.238 0 0 1-119.89 62.501c-8.027 4.709-14.537 8.174-18.633 10.267a72.287 72.287 0 0 1-6.144 37.568 402.9 402.9 0 0 0 16.768 4.809c39.845 10.231 112.311 22.464 149.303-10.77 20.242-18.185 27.429-48.741 21.257-90.798a32.643 32.643 0 0 0-9.628-19.602zM462.092 348.643a280.082 280.082 0 0 1-128.677-40.411c-9.143-2.45-16.32-4.672-20.709-6.098a73.347 73.347 0 0 1-30.821 22.217 379.865 379.865 0 0 0 8.347 14.903c16.832 28.635 61.513 95.534 113.134 98.359 27.246 1.463 53.851-15.049 79.296-49.17a33.057 33.057 0 0 0 7.067-20.709c-.346-7.845-3.582-18.323-27.637-19.091zM273.804 347.382c-4.69-8.009-8.146-14.51-10.24-18.597-2.503.259-5.017.39-7.534.393a72.658 72.658 0 0 1-30.043-6.528 376.71 376.71 0 0 0-4.571 15.918c0 .201-.082.393-.128.576-8.311 32.137-23.918 111.04 10.615 149.531 18.185 20.251 48.741 27.383 90.843 21.266a32.693 32.693 0 0 0 19.621-9.646c5.285-5.797 10.395-15.543-6.034-33.024a278.443 278.443 0 0 1-62.529-119.889zM189.333 2.129a32.693 32.693 0 0 0-19.621 9.646c-5.285 5.797-10.395 15.543 6.034 33.024a282.146 282.146 0 0 1 62.583 120.219c4.571 7.872 7.991 14.245 10.057 18.286a72.287 72.287 0 0 1 37.714 6.162 367.377 367.377 0 0 0 4.773-16.887c10.267-39.835 22.519-112.183-10.697-149.166-18.175-20.251-48.731-27.41-90.843-21.284zM339.23 221.832c28.645-16.823 95.515-61.504 98.341-113.17 1.49-27.209-15.077-53.943-49.234-79.351a32.72 32.72 0 0 0-20.709-7.067c-7.799.402-18.286 3.657-19.081 27.639a279.001 279.001 0 0 1-40.32 128.549c-2.405 9.225-4.635 16.457-6.089 20.928a73.333 73.333 0 0 1 22.181 30.839 352.973 352.973 0 0 0 14.911-8.367zM256.03 310.893c30.297 0 54.857-24.56 54.857-54.857s-24.56-54.857-54.857-54.857-54.857 24.56-54.857 54.857c.035 30.282 24.575 54.821 54.857 54.857zm0-91.429a9.143 9.143 0 0 1 0 18.286c-10.099 0-18.286 8.187-18.286 18.286a9.143 9.143 0 0 1-18.286 0c.001-20.198 16.375-36.572 36.572-36.572zM49.877 163.427a279.984 279.984 0 0 1 128.695 40.421c9.143 2.395 16.293 4.571 20.727 6.053a73.362 73.362 0 0 1 30.766-22.171 415.608 415.608 0 0 0-8.229-14.738c-16.768-28.672-61.349-95.616-113.143-98.505-27.109-1.408-53.943 15.022-79.369 49.143a33.063 33.063 0 0 0-7.067 20.709c.201 5.008.786 18.229 27.62 19.088z" fill="#ffffff" opacity="1" data-original="#000000"></path></g></svg>