<svg xmlns="http://www.w3.org/2000/svg" version="1.1" xmlns:xlink="http://www.w3.org/1999/xlink" width="512" height="512" x="0" y="0" viewBox="0 0 20 20" style="enable-background:new 0 0 512 512" xml:space="preserve" class=""><g><path d="M10 1a8.987 8.987 0 0 0-7.921 13.257l-1.037 3.455A1 1 0 0 0 2 19a1.019 1.019 0 0 0 .288-.042l3.455-1.037A9 9 0 1 0 10 1zm0 4a1 1 0 1 1-1 1 1 1 0 0 1 1-1zm1 10h-1a1 1 0 0 1-1-1v-4a1 1 0 0 1 0-2h1a1 1 0 0 1 1 1v4a1 1 0 0 1 0 2z" fill="#fafafa" opacity="1" data-original="#000000"></path></g></svg>